<?xml version="1.0" standalone="no"?>
<!DOCTYPE svg PUBLIC "-//W3C//DTD SVG 20010904//EN"
 "http://www.w3.org/TR/2001/REC-SVG-20010904/DTD/svg10.dtd">
<svg version="1.0" xmlns="http://www.w3.org/2000/svg"
 width="4501.000000pt" height="4500.000000pt" viewBox="0 0 4501.000000 4500.000000"
 preserveAspectRatio="xMidYMid meet">

<g transform="translate(0.000000,4500.000000) scale(0.100000,-0.100000)"
fill="#000000" stroke="none">
<path d="M0 22500 l0 -22500 22505 0 22505 0 0 22500 0 22500 -22505 0 -22505
0 0 -22500z m22555 21110 c48 -18 278 -281 397 -455 372 -542 562 -1226 519
-1869 -21 -309 -59 -509 -151 -787 -126 -380 -287 -664 -579 -1021 l-25 -29
245 -243 c559 -557 7910 -7885 9031 -9005 l1218 -1216 740 740 c407 407 740
743 740 747 0 3 -1743 1744 -3872 3868 -2130 2125 -3883 3879 -3895 3899 -41
65 -19 169 44 216 38 27 130 32 174 10 18 -10 1703 -1683 3744 -3719 2041
-2035 3822 -3811 3958 -3945 277 -273 282 -280 256 -376 -9 -35 -116 -146
-832 -858 l-822 -817 822 -818 c715 -711 823 -822 832 -857 6 -22 11 -45 11
-52 0 -16 -28 -99 -46 -138 -20 -43 -7875 -7874 -7926 -7903 -50 -27 -90 -28
-144 -3 -77 35 -115 132 -82 212 10 23 1279 1295 3914 3922 l3899 3888 -758
757 -757 757 -1238 -1236 c-1171 -1170 -8600 -8577 -9046 -9020 l-210 -208 25
-29 c292 -357 453 -641 579 -1021 174 -524 203 -1044 89 -1596 -106 -514 -386
-1043 -752 -1421 -97 -101 -137 -121 -209 -105 -53 12 -83 37 -189 156 -481
542 -741 1192 -766 1915 -25 744 232 1486 709 2041 l48 57 -5245 5232 -5246
5232 -277 -271 c-152 -148 -497 -490 -765 -759 l-489 -489 3889 -3878 c2138
-2132 3896 -3892 3906 -3909 24 -42 22 -122 -3 -164 -38 -63 -115 -92 -190
-72 -39 10 -418 386 -3984 3942 -2300 2294 -3950 3947 -3963 3971 -26 45 -32
152 -13 204 6 16 371 388 828 846 l817 817 -817 818 c-457 457 -822 829 -828
845 -13 37 -13 96 1 136 8 21 1250 1267 3953 3962 2167 2162 3955 3940 3971
3950 20 13 49 19 85 19 98 0 160 -64 160 -165 0 -30 -7 -59 -19 -79 -11 -17
-1761 -1768 -3890 -3890 -2129 -2122 -3871 -3862 -3871 -3865 0 -6 1073 -1077
1367 -1365 l131 -129 5246 5233 5246 5232 -48 57 c-897 1046 -950 2627 -124
3733 99 132 261 319 305 350 50 36 109 42 172 18z m177 -31009 c73 -13 101
-28 164 -88 65 -62 70 -73 79 -165 l7 -77 54 -3 54 -3 -66 -110 c-36 -60 -85
-144 -107 -185 -26 -47 -73 -107 -124 -161 -84 -87 -88 -93 -184 -308 -13 -30
-43 -77 -66 -104 -23 -27 -54 -74 -70 -103 -15 -30 -31 -54 -35 -54 -4 0 -19
-20 -33 -44 -23 -40 -25 -51 -19 -106 6 -59 6 -63 -20 -84 -24 -18 -28 -30
-33 -96 -3 -41 -10 -80 -15 -87 -6 -7 -5 -26 2 -50 17 -57 10 -97 -17 -101
-29 -4 -29 -8 7 -61 17 -24 30 -48 30 -52 0 -5 7 -6 15 -3 12 5 15 -3 15 -37
0 -24 2 -69 5 -99 5 -54 5 -54 -9 -25 -9 17 -15 40 -16 52 0 12 -5 25 -11 29
-9 5 -10 -8 -7 -45 4 -39 2 -51 -7 -47 -8 3 -15 -7 -18 -27 -3 -25 1 -37 19
-54 20 -18 24 -32 24 -78 0 -42 -4 -55 -15 -55 -8 0 -19 9 -25 20 -15 28 -40
26 -40 -4 0 -17 7 -26 25 -30 20 -5 25 -13 25 -37 0 -20 -4 -28 -11 -23 -6 4
-27 10 -45 14 -33 8 -34 7 -35 -26 -1 -19 -2 -40 -3 -46 -1 -7 10 -13 24 -14
35 -1 96 -22 110 -39 16 -20 -3 -51 -37 -60 -27 -7 -27 -8 -7 -15 16 -6 23
-19 26 -47 3 -21 11 -71 18 -111 12 -69 8 -102 -9 -73 -13 20 -20 -105 -9
-143 15 -48 4 -82 -31 -94 -16 -6 -34 -20 -40 -31 -9 -16 -18 -19 -41 -14
l-30 6 0 -51 0 -50 -59 -20 -58 -20 -47 41 -48 40 -101 -6 c-94 -6 -108 -5
-173 19 -60 22 -71 29 -67 45 3 10 14 19 24 19 11 0 19 2 19 5 0 3 -19 43 -42
89 l-42 85 22 143 c18 113 21 150 12 178 -8 25 -8 65 0 140 6 58 14 129 17
159 3 37 8 50 14 40 11 -17 12 22 3 70 -6 30 -8 31 -25 15 -18 -16 -19 -14
-16 63 2 60 8 89 25 117 24 41 26 54 13 75 -8 12 -12 13 -25 1 -9 -7 -18 -11
-21 -9 -6 7 14 138 30 189 27 90 29 117 7 124 -11 4 -28 19 -38 34 -9 14 -81
107 -158 207 -211 269 -421 605 -544 873 l-70 152 29 24 c16 14 29 33 29 44 0
35 32 112 46 112 8 0 32 -11 52 -25 23 -16 51 -25 75 -25 33 0 50 -10 127 -75
84 -71 89 -78 115 -152 16 -43 38 -89 51 -103 12 -14 70 -92 129 -175 145
-201 155 -215 259 -328 l89 -98 25 23 c13 13 42 58 63 101 38 79 104 177 118
177 16 0 62 79 110 187 26 61 62 128 79 149 33 43 254 417 297 504 31 64 81
111 110 105 11 -3 46 -9 77 -14z m-5550 -410 c80 -38 180 -110 203 -145 11
-16 14 -33 9 -48 -4 -13 -6 -25 -6 -28 1 -3 -18 -25 -41 -50 -75 -79 -79 -87
-93 -170 -7 -44 -36 -162 -64 -261 -45 -159 -50 -185 -39 -210 9 -24 8 -40 -9
-97 -12 -37 -25 -87 -31 -112 -5 -25 -21 -88 -35 -140 -14 -52 -37 -155 -51
-229 -14 -73 -28 -138 -32 -145 -8 -13 -25 -207 -27 -312 -1 -53 -6 -77 -18
-91 -10 -11 -17 -30 -17 -44 1 -17 3 -19 6 -6 8 29 20 19 26 -20 8 -49 -8
-176 -22 -181 -17 -6 -14 -72 3 -72 19 0 29 -31 21 -63 -4 -13 -1 -43 5 -66 6
-24 8 -62 4 -88 -6 -44 -8 -46 -68 -73 -53 -24 -285 -70 -352 -70 -10 0 -45
29 -79 64 l-60 65 -85 -29 c-272 -91 -586 -75 -827 40 -105 51 -125 77 -131
176 -5 87 13 330 33 427 8 37 36 115 62 173 42 92 53 109 89 130 68 40 84 32
59 -28 -14 -34 15 -18 47 26 18 24 96 98 173 163 l139 118 -44 5 -44 5 24 16
c14 9 94 46 178 82 84 37 181 87 216 112 35 25 96 59 136 75 39 16 93 45 119
64 l47 35 18 123 c34 235 77 471 107 592 44 178 88 314 102 319 6 3 73 4 147
3 129 -2 138 -4 202 -35z m11265 -35 c100 -34 175 -72 241 -121 119 -89 133
-179 49 -320 -28 -48 -50 -100 -57 -134 -6 -31 -19 -92 -30 -136 -10 -44 -17
-82 -14 -84 2 -3 102 2 222 10 119 8 272 14 338 14 106 0 125 -3 143 -19 29
-26 27 -75 -5 -167 -14 -41 -26 -80 -27 -86 0 -7 -2 -11 -4 -9 -2 2 -42 -11
-89 -30 -47 -19 -89 -32 -93 -30 -5 3 -101 -3 -215 -14 -212 -19 -281 -36
-281 -70 0 -8 -4 -21 -9 -28 -4 -7 -5 -26 -1 -42 5 -23 2 -31 -14 -40 -24 -12
-29 -58 -7 -66 12 -5 12 -9 0 -32 -19 -37 -17 -72 6 -126 l21 -46 -21 -28
c-18 -24 -22 -46 -25 -159 -5 -137 -29 -248 -61 -274 -14 -12 -14 -14 0 -25
14 -10 15 -13 1 -24 -22 -19 -18 -30 11 -30 17 0 24 -4 21 -12 -2 -7 -12 -51
-22 -97 -18 -81 -18 -84 0 -97 32 -24 136 -17 212 12 65 25 79 26 308 31 l240
5 65 -34 c37 -18 66 -41 68 -51 2 -10 -18 -39 -50 -72 -52 -54 -56 -56 -198
-99 -127 -39 -170 -47 -346 -64 -192 -20 -204 -22 -290 -60 -102 -46 -184 -64
-184 -39 0 12 -19 17 -87 22 -91 6 -102 9 -168 50 -22 14 -58 30 -80 36 -68
18 -85 42 -85 118 0 96 19 294 29 304 5 5 12 -52 16 -127 5 -96 11 -139 21
-147 12 -10 14 12 14 142 0 85 5 226 10 313 7 111 7 177 0 217 -6 33 -8 75 -4
96 l7 36 13 -29 c7 -16 13 -22 14 -14 0 8 11 84 24 168 19 123 20 152 9 152
-9 0 -13 15 -13 53 l0 53 -65 -7 c-35 -5 -77 -15 -93 -23 -41 -21 -225 -23
-273 -3 -78 32 -158 147 -167 239 l-5 48 44 19 c59 27 105 36 373 81 170 28
233 42 242 55 17 22 33 150 43 330 7 136 12 162 50 283 24 73 40 139 38 147
-3 7 2 37 11 65 l16 52 47 -6 c26 -4 78 -17 116 -30z m-16017 -425 c0 -15 -24
-29 -65 -37 -36 -7 -27 -10 95 -30 175 -30 280 -40 280 -27 0 23 -34 36 -127
49 -54 8 -109 17 -123 20 l-25 6 24 9 c13 5 69 10 125 11 92 2 106 0 161 -26
56 -26 71 -28 220 -33 162 -5 235 -17 217 -35 -6 -6 -6 -20 1 -39 10 -25 8
-32 -16 -57 l-28 -29 22 -28 22 -27 -24 -19 c-13 -10 -66 -40 -116 -66 -103
-52 -94 -51 -333 -42 l-125 4 -68 -33 c-81 -40 -172 -127 -250 -238 -31 -44
-65 -88 -76 -98 -14 -13 -21 -31 -21 -57 0 -57 -25 -122 -97 -246 -49 -85 -62
-117 -58 -136 5 -17 -4 -48 -24 -95 -34 -77 -40 -166 -12 -177 12 -5 11 -8 -1
-23 -40 -45 -28 -121 23 -147 16 -9 36 -26 44 -39 13 -19 33 -27 108 -41 73
-14 97 -22 115 -43 l24 -25 71 18 c40 10 88 26 107 35 41 20 290 40 460 37 58
-1 139 2 181 7 l77 8 31 -45 c26 -39 29 -47 16 -57 -13 -11 -12 -18 10 -58 14
-24 25 -46 25 -48 0 -19 -155 -87 -335 -146 -16 -5 -95 -13 -175 -17 -124 -6
-152 -11 -190 -31 -54 -28 -184 -39 -256 -21 -38 10 -61 9 -127 -5 -61 -12
-120 -15 -241 -12 -160 3 -161 3 -216 35 -30 18 -92 51 -137 74 -64 32 -84 47
-92 70 -6 17 -40 69 -77 116 l-67 87 6 95 c3 61 14 126 31 179 14 46 30 113
36 150 6 37 14 82 17 101 3 18 0 51 -7 72 -10 29 -10 42 -2 52 7 8 9 17 6 20
-3 3 4 20 16 37 14 19 19 35 13 41 -5 5 4 47 23 107 30 88 44 151 59 254 5 31
11 38 45 52 40 16 42 19 54 93 10 62 69 195 118 269 72 107 179 189 288 218
61 16 340 22 340 7z m18886 -362 c44 -17 78 -41 146 -107 50 -48 87 -91 84
-98 -3 -8 -22 -36 -42 -63 -29 -38 -47 -52 -80 -61 -32 -9 -44 -18 -44 -31 0
-10 -10 -25 -22 -33 -22 -13 -36 -17 -120 -31 -21 -3 -45 -13 -54 -23 -10 -9
-60 -31 -113 -48 -53 -18 -145 -53 -206 -80 -95 -42 -119 -57 -175 -114 -36
-36 -83 -77 -105 -90 -52 -31 -163 -137 -182 -174 -15 -30 -7 -45 25 -46 16 0
16 5 -9 -209 -18 -147 -20 -189 -11 -215 16 -43 15 -91 -2 -105 -8 -7 -18 -53
-25 -124 -18 -174 -16 -167 -62 -167 -22 0 -49 -5 -60 -10 -16 -9 -19 -7 -19
15 0 15 -4 24 -10 20 -5 -3 -10 -24 -10 -46 0 -37 -1 -39 -32 -39 -17 0 -65
12 -106 26 -52 18 -90 25 -124 22 -49 -3 -49 -3 -44 25 4 18 -2 41 -14 65 -11
20 -20 44 -20 52 0 26 -30 60 -52 60 -15 0 -18 4 -12 18 15 34 16 107 4 231
l-12 125 35 28 35 28 -15 40 c-15 37 -15 42 0 58 14 16 17 44 18 173 0 85 13
309 28 498 31 382 28 371 102 371 51 0 161 -35 242 -78 l69 -35 53 -112 c30
-61 61 -117 70 -125 20 -17 60 4 145 75 33 29 78 57 99 64 22 6 54 25 72 42
31 29 460 248 486 249 7 0 38 -10 69 -21z m-6604 -115 c65 -22 123 -76 184
-171 l53 -82 2 -193 c1 -146 -2 -205 -13 -244 -13 -44 -13 -57 -2 -90 23 -66
21 -110 -6 -139 -23 -24 -23 -25 -5 -45 18 -20 18 -21 -1 -48 -29 -39 -41 -80
-43 -143 -2 -49 1 -57 18 -62 25 -6 29 -45 6 -53 -9 -4 -15 -19 -15 -35 0 -16
-9 -55 -19 -87 -11 -32 -25 -106 -32 -164 -7 -59 -16 -113 -20 -119 -4 -7 -60
-13 -155 -16 -177 -5 -200 2 -250 85 -63 103 -71 249 -23 382 28 75 32 99 33
200 1 63 -2 123 -7 133 -11 24 -40 21 -67 -8 -15 -16 -30 -23 -42 -19 -27 8
-182 -64 -294 -138 -55 -36 -127 -80 -161 -98 -34 -18 -69 -40 -78 -51 -13
-13 -42 -130 -45 -177 0 -2 9 -1 19 3 12 4 23 0 28 -9 6 -12 30 -16 101 -17
82 -1 100 -5 148 -30 30 -17 70 -29 91 -30 21 0 58 -8 83 -17 l45 -18 -3 -45
c-4 -54 13 -126 36 -152 8 -9 13 -20 9 -23 -11 -11 -226 -26 -407 -27 -168 -2
-192 0 -258 21 -62 19 -82 31 -125 77 -91 94 -96 103 -112 178 -8 40 -19 88
-25 107 -5 19 -10 54 -10 77 0 37 7 51 55 108 30 35 55 73 55 83 0 33 75 125
161 198 140 118 169 136 207 130 47 -7 157 29 213 70 26 19 52 34 58 34 6 0
16 10 23 21 8 12 63 45 128 76 125 59 160 85 160 117 0 12 -11 62 -23 111
l-23 90 -55 -3 c-30 -2 -154 -24 -276 -48 -131 -27 -232 -42 -245 -38 -12 3
-43 26 -69 51 -26 24 -67 54 -91 66 -44 23 -91 88 -81 113 11 29 143 62 358
89 296 36 727 47 807 19z m8580 0 c65 -22 123 -76 184 -171 l53 -82 2 -193 c1
-146 -2 -205 -13 -244 -13 -44 -13 -57 -2 -90 23 -66 21 -110 -6 -139 -23 -24
-23 -25 -5 -45 18 -20 18 -21 -1 -48 -29 -39 -41 -80 -43 -143 -2 -49 1 -57
18 -62 25 -6 29 -45 6 -53 -9 -4 -15 -19 -15 -35 0 -16 -9 -55 -19 -87 -11
-32 -25 -106 -32 -164 -7 -59 -16 -113 -20 -119 -4 -7 -60 -13 -155 -16 -177
-5 -200 2 -250 85 -63 103 -71 249 -23 382 28 75 32 99 33 200 1 63 -2 123 -7
133 -11 24 -40 21 -67 -8 -15 -16 -30 -23 -42 -19 -27 8 -182 -64 -294 -138
-55 -36 -127 -80 -161 -98 -34 -18 -69 -40 -78 -51 -13 -13 -42 -130 -45 -177
0 -2 9 -1 19 3 12 4 23 0 28 -9 6 -12 30 -16 101 -17 82 -1 100 -5 148 -30 30
-17 70 -29 91 -30 21 0 58 -8 83 -17 l45 -18 -3 -45 c-4 -54 13 -126 36 -152
8 -9 13 -20 9 -23 -11 -11 -226 -26 -407 -27 -168 -2 -192 0 -258 21 -62 19
-82 31 -125 77 -91 94 -96 103 -112 178 -8 40 -19 88 -25 107 -5 19 -10 54
-10 77 0 37 7 51 55 108 30 35 55 73 55 83 0 33 75 125 161 198 140 118 169
136 207 130 47 -7 157 29 213 70 26 19 52 34 58 34 6 0 16 10 23 21 8 12 63
45 128 76 125 59 160 85 160 117 0 12 -11 62 -23 111 l-23 90 -55 -3 c-30 -2
-154 -24 -276 -48 -131 -27 -232 -42 -245 -38 -12 3 -43 26 -69 51 -26 24 -67
54 -91 66 -44 23 -91 88 -81 113 11 29 143 62 358 89 296 36 727 47 807 19z
m-18793 -27 c35 -15 136 -122 151 -162 5 -14 10 -50 10 -78 1 -59 17 -85 89
-136 25 -17 52 -44 61 -59 10 -16 54 -71 99 -123 89 -103 92 -111 121 -277 27
-156 26 -196 -10 -280 -16 -39 -30 -80 -30 -90 0 -22 -77 -104 -137 -145 -25
-17 -62 -31 -95 -36 -29 -4 -83 -22 -119 -39 -36 -18 -81 -32 -100 -32 -19 0
-59 -7 -89 -15 -75 -20 -127 -19 -223 6 -129 32 -379 118 -400 137 -33 29 -72
94 -105 174 -46 112 -50 147 -20 210 14 29 33 85 42 123 34 148 125 294 208
336 28 14 38 26 38 43 0 43 185 267 303 367 105 88 143 102 206 76z m4279 -17
c74 -11 162 -20 195 -20 56 0 71 -5 165 -56 96 -53 102 -59 102 -88 0 -23 9
-39 30 -58 35 -31 37 -47 11 -79 -19 -23 -19 -24 0 -50 18 -25 18 -26 -5 -60
-20 -30 -23 -45 -21 -113 1 -61 5 -80 18 -88 18 -9 24 -58 8 -58 -6 0 -7 -15
-5 -32 5 -28 -1 -40 -41 -85 -38 -43 -70 -65 -176 -118 -72 -36 -136 -65 -143
-65 -8 0 -19 -7 -26 -15 -7 -8 -24 -15 -38 -15 -14 0 -37 -11 -51 -24 -15 -13
-52 -31 -85 -40 -41 -12 -60 -23 -63 -37 -6 -21 -15 -24 -108 -39 -182 -28
-265 -49 -272 -67 -3 -7 2 -44 12 -82 l17 -69 56 -15 c114 -32 228 -40 417
-31 323 16 430 7 528 -43 l48 -24 -3 -81 c-3 -79 -4 -83 -33 -99 -16 -10 -86
-30 -155 -45 -119 -26 -141 -27 -454 -31 -311 -4 -335 -3 -424 17 -108 25
-262 98 -335 159 -95 80 -159 176 -159 240 0 20 8 87 18 149 17 105 20 112 41
112 18 0 23 5 23 28 0 15 -4 34 -10 42 -5 9 -5 19 1 27 6 6 14 49 18 95 7 79
22 125 44 139 5 4 5 14 -2 27 -8 15 -7 29 4 56 16 37 32 45 52 25 14 -14 53
-2 53 16 0 8 -11 26 -25 41 -14 15 -25 30 -26 33 -5 30 -6 77 0 81 3 3 17 28
31 55 28 57 136 175 190 207 19 12 78 53 130 92 150 112 204 122 448 86z
m7056 -5 c181 -47 341 -198 321 -302 -5 -28 -3 -34 7 -30 7 3 112 49 233 103
180 80 233 99 290 105 39 4 84 11 101 14 26 6 37 2 66 -24 20 -18 51 -33 75
-37 21 -3 66 -20 99 -37 l59 -32 3 -59 c2 -47 0 -61 -15 -71 -15 -12 -16 -14
-3 -19 38 -15 14 -288 -30 -348 -23 -32 -25 -38 -7 -38 18 0 19 -84 2 -155 -7
-33 -17 -76 -21 -95 -3 -19 -20 -75 -36 -125 -23 -69 -29 -100 -25 -137 5 -36
1 -59 -14 -94 -20 -43 -20 -83 -3 -129 3 -7 -3 -16 -15 -20 -11 -3 -23 -14
-26 -23 -3 -9 -28 -28 -54 -41 -62 -30 -166 -27 -202 4 -28 27 -63 97 -80 165
-19 74 -19 554 -1 699 13 99 9 213 -8 241 -6 10 -37 -1 -126 -44 -161 -77
-250 -134 -311 -199 -62 -65 -84 -113 -88 -187 -2 -30 -7 -77 -11 -105 l-7
-49 26 17 27 17 0 -30 c0 -39 -13 -64 -61 -117 -46 -50 -48 -68 -18 -173 17
-61 19 -89 13 -162 l-7 -88 -33 0 c-18 0 -47 -8 -63 -18 -29 -18 -37 -18 -188
-1 -153 16 -161 18 -261 65 l-104 49 21 27 c25 31 26 38 6 38 -9 0 -15 9 -15
21 0 14 5 19 14 16 20 -8 118 106 110 127 -5 12 -11 13 -24 6 -10 -6 -32 -10
-49 -10 -28 0 -31 3 -31 31 0 17 10 53 22 81 23 55 20 63 -34 74 l-27 6 31 60
c28 55 30 62 20 110 -9 46 -7 57 24 134 24 59 34 100 34 137 0 94 67 259 185
457 38 63 68 125 67 136 -2 26 40 74 65 74 11 0 45 -7 77 -15z m-9974 -428 c0
-29 -24 -62 -38 -53 -8 5 -7 17 5 41 19 40 33 45 33 12z m-69 -64 c-5 -10 -26
-34 -46 -53 l-38 -35 7 30 c7 32 48 75 72 75 11 0 12 -4 5 -17z m3527 0 c-5
-26 -38 -29 -38 -4 0 15 6 21 21 21 14 0 19 -5 17 -17z m-3632 -96 c-11 -54
-46 -78 -46 -31 0 28 30 75 44 67 4 -3 5 -19 2 -36z m3632 22 c-2 -6 -8 -10
-13 -10 -5 0 -11 4 -13 10 -2 6 4 11 13 11 9 0 15 -5 13 -11z m8642 -511 c0
-56 -3 -68 -16 -68 -14 0 -15 7 -10 38 3 20 6 57 6 82 0 33 3 41 10 30 5 -8
10 -45 10 -82z m-10130 -2238 l0 -780 -95 0 -95 0 0 60 c0 33 -3 60 -6 60 -4
0 -22 -14 -42 -31 -115 -101 -322 -128 -466 -61 -161 75 -246 241 -233 452 11
182 99 308 257 372 45 18 75 22 165 23 103 0 114 -2 176 -31 37 -18 85 -49
108 -69 l41 -37 0 411 0 411 95 0 95 0 0 -780z m4798 755 c23 -9 42 -21 42
-27 0 -5 -17 -38 -37 -73 -37 -64 -37 -65 -61 -49 -39 25 -125 15 -161 -20
-44 -43 -51 -83 -51 -315 l0 -211 130 0 130 0 0 -85 0 -85 -130 0 -130 0 0
-335 0 -335 -95 0 -95 0 0 335 0 335 -70 0 -70 0 0 85 0 85 70 0 70 0 0 210
c0 116 5 232 11 262 27 126 101 209 214 239 47 13 185 3 233 -16z m8942 -755
l0 -780 -95 0 -95 0 0 60 c0 33 -3 60 -6 60 -4 0 -22 -14 -42 -31 -115 -101
-322 -128 -466 -61 -161 75 -246 241 -233 452 11 182 99 308 257 372 45 18 75
22 165 23 103 0 114 -2 176 -31 37 -18 85 -49 108 -69 l41 -37 0 411 0 411 95
0 95 0 0 -780z m-19625 602 c-34 -51 -55 -116 -55 -168 0 -48 4 -46 -107 -58
l-43 -4 0 67 c0 80 29 148 92 210 l40 40 49 -24 49 -25 -25 -38z m250 0 c-34
-51 -55 -116 -55 -168 0 -48 4 -46 -107 -58 l-43 -4 0 67 c0 80 29 148 92 210
l40 40 49 -24 49 -25 -25 -38z m918 50 c313 -85 506 -335 524 -677 8 -146 -12
-249 -72 -370 -72 -149 -193 -263 -346 -327 -118 -49 -191 -58 -490 -58 l-269
0 0 731 0 731 288 -4 c253 -4 296 -8 365 -26z m7347 0 c111 -36 180 -95 222
-189 32 -69 31 -224 0 -304 -26 -64 -77 -128 -128 -160 l-36 -22 56 -30 c70
-38 140 -106 174 -171 24 -46 27 -62 27 -156 0 -93 -3 -111 -27 -162 -34 -74
-107 -147 -182 -182 -100 -47 -167 -56 -443 -56 l-253 0 0 731 0 731 263 -4
c234 -4 269 -7 327 -26z m6820 -67 l0 -95 -375 0 -375 0 0 -220 0 -220 335 0
335 0 0 -95 0 -95 -335 0 -335 0 0 -225 0 -225 390 0 390 0 0 -95 0 -95 -485
0 -485 0 0 730 0 730 470 0 470 0 0 -95z m5788 7 c-6 -77 -47 -168 -99 -218
l-29 -28 -51 25 -50 25 21 27 c33 42 60 121 60 177 l0 49 48 4 c26 2 60 4 76
5 l29 2 -5 -68z m239 4 c-4 -43 -16 -85 -36 -124 -29 -58 -83 -122 -102 -122
-12 0 -89 39 -89 45 0 2 11 21 25 41 33 49 59 138 52 180 l-6 33 52 4 c29 2
65 4 81 5 l29 2 -6 -64z m-18835 -525 c86 -33 159 -105 208 -205 22 -44 41
-94 42 -110 l3 -29 -319 -113 c-175 -63 -322 -116 -325 -120 -13 -13 97 -101
143 -114 69 -19 162 -9 230 24 32 16 61 24 66 20 4 -5 24 -35 44 -66 l36 -57
-25 -17 c-50 -33 -160 -66 -237 -71 -298 -21 -505 183 -485 479 12 183 157
351 343 397 66 17 211 7 276 -18z m1959 0 c127 -48 221 -147 261 -275 16 -49
19 -81 16 -162 -4 -91 -8 -109 -40 -175 -74 -157 -224 -249 -404 -249 -196 0
-346 87 -421 246 -61 129 -55 305 14 423 59 101 162 178 278 208 74 19 227 11
296 -16z m2271 0 c86 -33 159 -105 208 -205 22 -44 41 -94 42 -110 l3 -29
-319 -113 c-175 -63 -322 -116 -325 -120 -13 -13 97 -101 143 -114 69 -19 162
-9 230 24 32 16 61 24 66 20 4 -5 24 -35 44 -66 l36 -57 -25 -17 c-50 -33
-160 -66 -237 -71 -298 -21 -505 183 -485 479 12 183 157 351 343 397 66 17
211 7 276 -18z m2910 0 c86 -33 159 -105 208 -205 22 -44 41 -94 42 -110 l3
-29 -319 -113 c-175 -63 -322 -116 -325 -120 -13 -13 97 -101 143 -114 69 -19
162 -9 230 24 32 16 61 24 66 20 4 -5 24 -35 44 -66 l36 -57 -25 -17 c-50 -33
-160 -66 -237 -71 -298 -21 -505 183 -485 479 12 183 157 351 343 397 66 17
211 7 276 -18z m1759 0 c127 -48 221 -147 261 -275 16 -49 19 -81 16 -162 -4
-91 -8 -109 -40 -175 -74 -157 -224 -249 -404 -249 -196 0 -346 87 -421 246
-61 129 -55 305 14 423 59 101 162 178 278 208 74 19 227 11 296 -16z m1801 0
c86 -33 159 -105 208 -205 22 -44 41 -94 42 -110 l3 -29 -319 -113 c-175 -63
-322 -116 -325 -120 -13 -13 97 -101 143 -114 69 -19 162 -9 230 24 32 16 61
24 66 20 4 -5 24 -35 44 -66 l36 -57 -25 -17 c-50 -33 -160 -66 -237 -71 -298
-21 -505 183 -485 479 12 183 157 351 343 397 66 17 211 7 276 -18z m4999 0
c127 -48 221 -147 261 -275 16 -49 19 -81 16 -162 -4 -91 -8 -109 -40 -175
-74 -157 -224 -249 -404 -249 -196 0 -346 87 -421 246 -61 129 -55 305 14 423
59 101 162 178 278 208 74 19 227 11 296 -16z m2271 0 c86 -33 159 -105 208
-205 22 -44 41 -94 42 -110 l3 -29 -319 -113 c-175 -63 -322 -116 -325 -120
-13 -13 97 -101 143 -114 69 -19 162 -9 230 24 32 16 61 24 66 20 4 -5 24 -35
44 -66 l36 -57 -25 -17 c-50 -33 -160 -66 -237 -71 -298 -21 -505 183 -485
479 12 183 157 351 343 397 66 17 211 7 276 -18z m-16961 -7 c47 -14 96 -38
148 -73 11 -7 4 -22 -34 -75 l-47 -67 -32 21 c-126 85 -260 77 -356 -19 -130
-130 -100 -356 58 -449 42 -24 56 -27 142 -27 83 0 101 3 138 25 l44 25 16
-21 c63 -78 73 -94 67 -104 -3 -6 -29 -22 -56 -35 -233 -118 -526 -39 -632
171 -46 92 -60 229 -33 329 37 140 121 232 265 291 70 29 226 33 312 8z m8929
-73 l0 -88 -49 -7 c-69 -9 -164 -59 -202 -107 -62 -78 -69 -115 -69 -354 l0
-215 -95 0 -95 0 0 415 0 415 84 0 84 0 7 -97 c6 -80 10 -94 19 -79 17 30 97
115 130 139 38 27 135 66 164 67 21 0 22 -3 22 -89z m3838 54 c28 -15 64 -44
79 -64 48 -62 53 -108 53 -448 l0 -313 -94 0 -95 0 -3 298 c-3 277 -4 299 -23
332 -61 104 -242 86 -324 -33 -53 -77 -61 -127 -61 -374 l0 -223 -95 0 -95 0
0 415 0 415 84 0 84 0 7 -67 c4 -38 7 -72 8 -76 1 -4 16 10 32 32 70 94 179
143 310 138 66 -3 90 -8 133 -32z m973 19 c47 -14 96 -38 148 -73 11 -7 4 -22
-34 -75 l-47 -67 -32 21 c-126 85 -260 77 -356 -19 -130 -130 -100 -356 58
-449 42 -24 56 -27 142 -27 83 0 101 3 138 25 l44 25 16 -21 c63 -78 73 -94
67 -104 -3 -6 -29 -22 -56 -35 -233 -118 -526 -39 -632 171 -46 92 -60 229
-33 329 37 140 121 232 265 291 70 29 226 33 312 8z"/>
<path d="M22401 43118 c-473 -591 -671 -1372 -540 -2124 77 -445 264 -860 547
-1212 l75 -94 24 29 c515 615 729 1387 603 2172 -61 376 -202 732 -415 1051
-83 124 -198 270 -213 270 -4 0 -41 -42 -81 -92z"/>
<path d="M17240 33985 c-2882 -2875 -5240 -5231 -5240 -5235 0 -4 2358 -2360
5240 -5235 l5241 -5227 793 789 c1560 1551 9696 9668 9696 9673 0 5 -7963
7949 -9651 9628 l-838 834 -5241 -5227z m5642 1044 c1692 -119 3255 -917 4346
-2219 1138 -1360 1640 -3133 1387 -4900 -267 -1860 -1362 -3496 -2986 -4465
-395 -236 -764 -404 -1219 -555 -1946 -646 -4086 -297 -5717 934 -1067 805
-1851 1930 -2227 3196 -113 383 -185 750 -233 1195 -22 205 -25 915 -5 1130
101 1068 433 2024 1007 2895 608 925 1453 1669 2457 2165 724 358 1541 576
2353 628 130 9 701 6 837 -4z"/>
<path d="M22005 34699 c-1457 -116 -2780 -734 -3786 -1767 -996 -1022 -1573
-2317 -1670 -3745 -15 -225 -6 -755 16 -962 77 -727 267 -1390 580 -2023 221
-446 452 -802 771 -1187 135 -163 548 -577 714 -717 875 -735 1907 -1193 3020
-1342 310 -42 456 -51 805 -50 352 0 530 13 849 59 1554 226 2955 1069 3898
2345 1070 1448 1416 3331 933 5076 -164 589 -421 1156 -759 1669 -605 918
-1472 1664 -2462 2119 -587 269 -1209 439 -1879 512 -174 19 -852 28 -1030 13z
m1350 -1855 c168 -21 421 -72 474 -95 66 -29 108 -65 133 -112 22 -42 23 -49
30 -647 20 -1587 25 -1814 39 -1854 7 -21 33 -60 56 -86 61 -68 783 -695 798
-694 7 1 186 155 398 343 l386 341 -33 73 c-64 140 -157 275 -277 402 -86 92
-153 184 -196 269 l-35 69 29 27 c88 86 776 710 781 709 9 0 177 -205 266
-323 293 -389 572 -905 697 -1293 33 -101 32 -211 -3 -283 -15 -30 -35 -64
-45 -76 -10 -12 -301 -263 -648 -559 -346 -296 -654 -563 -683 -594 -30 -31
-63 -74 -75 -96 -25 -47 -25 75 -2 -1665 16 -1116 14 -1220 -23 -1267 -9 -12
-244 -203 -522 -424 l-505 -401 -2 88 c-1 49 -9 870 -18 1824 -10 1025 -20
1753 -26 1780 -6 25 -21 62 -34 82 -14 20 -297 273 -629 562 -615 535 -654
572 -714 691 -48 96 -53 140 -63 545 -5 212 -16 849 -24 1416 -16 1122 -17
1092 39 1172 27 40 87 80 140 93 36 9 122 4 291 -17z m-1361 -621 c4 -351 11
-962 16 -1357 5 -396 9 -721 7 -722 -9 -9 -430 -24 -664 -24 -292 0 -318 3
-361 43 -53 49 -52 41 -85 724 -21 434 -35 643 -42 643 -6 0 -87 -38 -181 -84
-345 -172 -664 -413 -927 -701 -438 -480 -696 -1040 -783 -1700 -24 -182 -24
-581 0 -760 67 -496 222 -923 476 -1309 124 -189 232 -319 414 -501 250 -248
482 -418 781 -571 155 -79 342 -161 348 -153 2 2 -1 257 -6 567 -7 499 -7 568
7 617 21 72 70 133 131 164 l49 26 429 8 c236 5 430 7 432 5 2 -2 8 -106 14
-233 20 -408 32 -1121 26 -1465 -5 -300 -25 -944 -28 -946 -8 -4 -330 19 -437
31 -1472 176 -2799 1138 -3384 2455 -461 1039 -485 2251 -66 3305 278 699 760
1310 1399 1775 680 496 1528 785 2342 799 l86 1 7 -637z"/>
<path d="M23207 32522 c-5 -8 18 -1709 31 -2297 9 -403 11 -416 55 -483 12
-18 290 -267 618 -552 329 -286 616 -541 638 -567 64 -74 110 -175 127 -279
11 -71 17 -387 27 -1562 8 -809 16 -1475 19 -1478 7 -6 397 302 404 319 2 7
-5 617 -15 1357 -15 1120 -16 1355 -5 1407 17 81 70 181 140 266 35 42 296
273 704 622 l649 555 -13 43 c-55 178 -261 605 -400 831 -122 198 -274 408
-289 399 -18 -11 -337 -304 -337 -310 0 -3 31 -38 69 -80 127 -138 247 -320
321 -490 37 -83 44 -111 48 -180 4 -74 2 -88 -21 -135 -15 -29 -54 -81 -89
-115 -108 -105 -790 -704 -843 -739 -92 -61 -190 -67 -292 -16 -60 29 -810
677 -909 785 -67 73 -115 160 -140 252 -17 64 -24 358 -40 1768 l-6 608 -23 9
c-23 9 -286 53 -377 64 -26 3 -49 2 -51 -2z"/>
<path d="M21540 32503 c-332 -51 -515 -95 -763 -180 -853 -292 -1598 -889
-2052 -1643 -380 -631 -572 -1421 -527 -2172 34 -564 155 -1032 392 -1513 223
-454 507 -823 903 -1172 592 -522 1367 -874 2125 -966 l110 -13 6 120 c14 291
16 818 6 1271 -5 270 -13 507 -16 528 l-6 37 -205 0 -206 0 7 -277 c3 -153 9
-491 12 -752 7 -462 6 -473 -12 -467 -10 3 -83 24 -162 46 -754 213 -1392 649
-1861 1274 -696 928 -865 2207 -434 3301 338 857 1042 1568 1902 1920 124 51
412 147 419 140 3 -3 22 -348 43 -768 21 -419 38 -763 39 -764 0 -2 95 -3 211
-3 l212 0 -7 723 c-3 397 -9 860 -12 1030 l-7 307 -46 -1 c-25 -1 -57 -3 -71
-6z"/>
<path d="M22408 17718 c-508 -633 -700 -1460 -522 -2256 69 -313 199 -622 372
-884 69 -104 206 -280 222 -286 14 -5 124 132 215 268 579 865 602 1996 58
2884 -50 81 -180 260 -246 339 l-24 29 -75 -94z"/>
<path d="M16370 10609 c-41 -16 -148 -64 -236 -108 -143 -70 -165 -84 -191
-122 -88 -128 -130 -284 -104 -379 4 -14 3 -44 -3 -68 -8 -35 -7 -45 4 -52 23
-14 132 -29 294 -40 82 -6 167 -18 190 -26 22 -9 48 -18 56 -20 13 -4 18 20
33 143 10 82 18 180 18 219 -1 38 4 143 9 234 6 91 9 184 8 207 l-3 41 -75
-29z"/>
<path d="M28233 9983 c-15 -5 -17 -49 -4 -57 16 -10 41 5 41 24 0 21 -20 39
-37 33z"/>
<path d="M28194 9824 c-8 -20 -14 -45 -12 -56 2 -15 11 -5 30 36 23 45 25 56
12 56 -8 0 -22 -16 -30 -36z"/>
<path d="M30947 11101 c-58 -19 -187 -90 -187 -104 0 -4 30 8 68 27 37 18 102
46 145 61 42 15 77 29 77 31 0 9 -49 2 -103 -15z"/>
<path d="M30650 10982 c0 -6 -22 -24 -50 -42 -59 -38 -64 -46 -15 -25 19 8 51
22 71 30 19 9 34 21 31 28 -5 15 -37 22 -37 9z"/>
<path d="M13942 10552 c-52 -81 -84 -158 -80 -198 3 -37 3 -36 54 57 29 52 62
111 73 131 22 36 22 37 3 47 -18 9 -24 5 -50 -37z"/>
<path d="M14375 10548 c-31 -36 -117 -205 -150 -293 -19 -49 -22 -73 -18 -132
3 -41 11 -74 17 -76 25 -10 209 33 251 58 49 28 101 86 110 122 3 15 -9 83
-31 167 l-36 143 -52 22 c-28 11 -54 21 -58 21 -3 0 -18 -14 -33 -32z"/>
<path d="M18640 10945 c-36 -19 -96 -59 -135 -87 l-69 -53 -13 -89 c-7 -49
-27 -139 -44 -200 -38 -134 -50 -236 -27 -236 35 0 88 32 124 76 35 41 46 47
94 55 63 10 125 49 152 96 30 51 48 159 48 294 0 113 -2 129 -21 153 -11 14
-26 26 -32 26 -7 0 -41 -16 -77 -35z"/>
<path d="M25375 10150 c3 -5 8 -10 11 -10 2 0 4 5 4 10 0 6 -5 10 -11 10 -5 0
-7 -4 -4 -10z"/>
<path d="M25485 10086 c-22 -33 -34 -81 -25 -96 12 -19 30 -2 30 28 0 15 4 42
9 60 11 38 7 41 -14 8z"/>
<path d="M17265 7818 c-71 -25 -136 -90 -165 -166 -40 -104 -20 -215 53 -298
57 -65 123 -94 212 -94 117 0 208 58 254 160 30 66 29 188 -3 256 -28 60 -91
117 -154 138 -51 18 -152 20 -197 4z"/>
<path d="M31005 7818 c-71 -25 -136 -90 -165 -166 -40 -104 -20 -215 53 -298
57 -65 123 -94 212 -94 117 0 208 58 254 160 30 66 29 188 -3 256 -28 60 -91
117 -154 138 -51 18 -152 20 -197 4z"/>
<path d="M12650 7840 l0 -540 153 0 c179 0 262 15 363 65 184 90 284 279 271
510 -9 148 -56 256 -151 350 -120 119 -232 155 -478 155 l-158 0 0 -540z"/>
<path d="M20060 8155 l0 -225 131 0 c74 0 149 5 172 12 156 47 197 293 65 388
-51 38 -115 50 -253 50 l-115 0 0 -225z"/>
<path d="M20060 7515 l0 -225 144 0 c117 0 156 4 211 21 116 36 175 119 161
232 -7 64 -38 111 -93 144 -67 39 -142 53 -290 53 l-133 0 0 -225z"/>
<path d="M14200 7817 c-52 -17 -124 -94 -143 -153 -23 -71 -31 -140 -18 -148
11 -7 447 147 464 164 23 21 -53 109 -115 134 -42 18 -136 19 -188 3z"/>
<path d="M16142 7804 c-203 -101 -201 -426 3 -520 57 -27 133 -31 199 -12 64
19 141 101 162 173 35 121 0 254 -86 327 -74 64 -187 77 -278 32z"/>
<path d="M18430 7817 c-52 -17 -124 -94 -143 -153 -23 -71 -31 -140 -18 -148
11 -7 447 147 464 164 23 21 -53 109 -115 134 -42 18 -136 19 -188 3z"/>
<path d="M21340 7817 c-52 -17 -124 -94 -143 -153 -23 -71 -31 -140 -18 -148
11 -7 447 147 464 164 23 21 -53 109 -115 134 -42 18 -136 19 -188 3z"/>
<path d="M23082 7804 c-203 -101 -201 -426 3 -520 57 -27 133 -31 199 -12 64
19 141 101 162 173 35 121 0 254 -86 327 -74 64 -187 77 -278 32z"/>
<path d="M24900 7817 c-52 -17 -124 -94 -143 -153 -23 -71 -31 -140 -18 -148
11 -7 447 147 464 164 23 21 -53 109 -115 134 -42 18 -136 19 -188 3z"/>
<path d="M29882 7804 c-203 -101 -201 -426 3 -520 57 -27 133 -31 199 -12 64
19 141 101 162 173 35 121 0 254 -86 327 -74 64 -187 77 -278 32z"/>
<path d="M32170 7817 c-52 -17 -124 -94 -143 -153 -23 -71 -31 -140 -18 -148
11 -7 447 147 464 164 23 21 -53 109 -115 134 -42 18 -136 19 -188 3z"/>
</g>
</svg>
